<?xml version="1.0" encoding="UTF-8" standalone="no"?>
<!-- Created with Inkscape (http://www.inkscape.org/) -->

<svg
   xmlns:dc="http://purl.org/dc/elements/1.1/"
   xmlns:cc="http://creativecommons.org/ns#"
   xmlns:rdf="http://www.w3.org/1999/02/22-rdf-syntax-ns#"
   xmlns:svg="http://www.w3.org/2000/svg"
   xmlns="http://www.w3.org/2000/svg"
   version="1.1"
   width="222.68187"
   height="123.24644"
   id="svg20206">
  <defs
     id="defs20208" />
  <metadata
     id="metadata20211">
    <rdf:RDF>
      <cc:Work
         rdf:about="">
        <dc:format>image/svg+xml</dc:format>
        <dc:type
           rdf:resource="http://purl.org/dc/dcmitype/StillImage" />
        <dc:title></dc:title>
      </cc:Work>
    </rdf:RDF>
  </metadata>
  <g
     transform="translate(-196.47363,-319.49405)"
     id="layer1">
    <rect
       width="28.427471"
       height="4.7379122"
       x="229.63904"
       y="319.49405"
       id="rect20285"
       style="fill:#000000;fill-opacity:1;fill-rule:evenodd;stroke:none" />
    <rect
       width="56.854942"
       height="18.951649"
       x="215.42529"
       y="324.23196"
       id="rect20287"
       style="fill:#000000;fill-opacity:1;fill-rule:evenodd;stroke:none" />
    <rect
       width="14.213736"
       height="18.951649"
       x="277.01813"
       y="328.96985"
       id="rect20289"
       style="fill:#000000;fill-opacity:1;fill-rule:evenodd;stroke:none" />
    <rect
       width="14.213736"
       height="18.951649"
       x="196.47363"
       y="328.96985"
       id="rect20291"
       style="fill:#000000;fill-opacity:1;fill-rule:evenodd;stroke:none" />
    <rect
       width="94.75824"
       height="94.75824"
       x="196.47363"
       y="347.92151"
       id="rect20293"
       style="fill:#000000;fill-opacity:1;fill-rule:evenodd;stroke:none" />
    <path
       d="m 220.1632,361.20458 52.11703,0 4.73791,0"
       id="path20295"
       style="fill:#ffffff;stroke:#ffffff;stroke-width:4.73791218px;stroke-linecap:butt;stroke-linejoin:miter;stroke-opacity:1" />
    <path
       d="m 210.68737,370.6804 66.33077,0"
       id="path20297"
       style="fill:#ffffff;stroke:#ffffff;stroke-width:4.73791218px;stroke-linecap:butt;stroke-linejoin:miter;stroke-opacity:1" />
    <path
       d="m 210.68737,380.15623 66.33077,0"
       id="path20299"
       style="fill:#ffffff;stroke:#ffffff;stroke-width:4.73791218px;stroke-linecap:butt;stroke-linejoin:miter;stroke-opacity:1" />
    <path
       d="m 210.68737,389.63205 47.37912,0"
       id="path20301"
       style="fill:none;stroke:#ffffff;stroke-width:4.73791218px;stroke-linecap:butt;stroke-linejoin:miter;stroke-opacity:1" />
    <path
       d="m 220.1632,403.84579 56.85494,0"
       id="path20303"
       style="fill:none;stroke:#ffffff;stroke-width:4.73791218px;stroke-linecap:butt;stroke-linejoin:miter;stroke-opacity:1" />
    <path
       d="m 210.68737,413.32161 66.33077,0"
       id="path20305"
       style="fill:none;stroke:#ffffff;stroke-width:4.73791218px;stroke-linecap:butt;stroke-linejoin:miter;stroke-opacity:1" />
    <path
       d="m 210.68737,422.79743 66.33077,0"
       id="path20307"
       style="fill:none;stroke:#ffffff;stroke-width:4.73791218px;stroke-linecap:butt;stroke-linejoin:miter;stroke-opacity:1" />
    <path
       d="m 210.68737,432.27326 14.21374,0"
       id="path20309"
       style="fill:none;stroke:#ffffff;stroke-width:4.73791218px;stroke-linecap:butt;stroke-linejoin:miter;stroke-opacity:1" />
    <path
       d="m 357.56265,319.55478 0,4.73791 -14.21374,0 0,18.95165 56.85494,0 0,-18.95165 -14.21373,0 0,-4.73791 -28.42747,0 z m -33.16539,9.47582 0,18.95165 0,94.75824 94.75824,0 0,-94.75824 0,-18.95165 -14.21373,0 0,18.95165 -66.33077,0 0,-18.95165 -14.21374,0 z"
       id="rect20311"
       style="fill:#a3b9c0;fill-opacity:1;fill-rule:evenodd;stroke:none" />
    <g
       transform="scale(0.91336721,1.0948499)"
       id="text20337"
       style="font-size:86.19200134px;font-style:normal;font-variant:normal;font-weight:bold;font-stretch:normal;text-align:start;line-height:125%;letter-spacing:0px;word-spacing:0px;text-anchor:start;fill:#ffffff;fill-opacity:1;stroke:none;font-family:WorcesterSerial;-inkscape-font-specification:WorcesterSerial Bold">
      <path
         d="m 415.75197,360.49007 c 0.6895,0.51718 1.26411,0.97687 1.72384,1.37907 0.51711,0.34479 0.9768,0.71829 1.37907,1.12049 0.40219,0.40226 0.77569,0.83322 1.1205,1.29288 0.34472,0.45972 0.71822,1.03433 1.12049,1.72384 l 4.74056,7.5849 c 1.03426,1.66639 2.06856,3.24658 3.10291,4.74056 1.03426,1.49401 2.0111,2.81562 2.93053,3.96483 0.91933,1.14924 1.72379,2.09735 2.41338,2.84434 0.68948,0.747 1.26409,1.20669 1.72384,1.37907 l 3.36149,1.46526 c 0.34471,0.11493 0.63201,0.37351 0.86192,0.77573 0.28724,0.40223 0.4309,0.83319 0.43096,1.29288 -6e-5,0.63208 -0.28737,1.06304 -0.86192,1.29288 -0.57468,0.28731 -1.60898,0.43096 -3.10292,0.43096 -1.89627,0 -3.50519,-0.11492 -4.82675,-0.34477 -1.32166,-0.17238 -2.49961,-0.51715 -3.53387,-1.0343 -1.03435,-0.57461 -1.98246,-1.32161 -2.84434,-2.24099 -0.8045,-0.97684 -1.63769,-2.21226 -2.49956,-3.70626 l -9.05016,-15.34217 c -0.57465,-0.97682 -1.37911,-2.03986 -2.41338,-3.18911 -0.97687,-1.1492 -1.92498,-2.09731 -2.84434,-2.84433 -1.49402,-1.26412 -3.41897,-1.8962 -5.77486,-1.89623 -0.86194,3e-5 -1.95371,0.11495 -3.2753,0.34477 l 0,18.96224 c -2e-5,0.86193 0.0287,1.63766 0.0862,2.32718 0.0574,0.63209 0.14363,1.17797 0.25857,1.63765 0.28729,0.80447 0.77571,1.55146 1.46527,2.24099 0.74697,0.68954 1.5227,1.1205 2.32718,1.29288 l 2.84434,0.60335 c 1.20666,0.28731 1.81,0.86192 1.81003,1.72384 -3e-5,1.32161 -1.06306,1.98241 -3.18911,1.98241 -0.57463,0 -1.17798,-0.0287 -1.81003,-0.0862 -0.57463,-0.0575 -1.20671,-0.17238 -1.89622,-0.34477 -2.24101,-0.34476 -4.1085,-0.51715 -5.60248,-0.51715 -0.34479,0 -0.94813,0.0287 -1.81003,0.0862 -0.80448,0.11493 -1.86751,0.22985 -3.18911,0.34477 -0.80447,0.11492 -1.58019,0.20112 -2.32718,0.25858 -0.74701,0.0575 -1.55146,0.0862 -2.41338,0.0862 l -0.17238,0 c -1.95369,0 -2.93053,-0.60334 -2.93053,-1.81003 0,-1.0343 0.6608,-1.66638 1.98242,-1.89623 1.72383,-0.34476 2.90179,-0.60334 3.53387,-0.77572 0.68953,-0.22985 1.26414,-0.66081 1.72384,-1.29288 0.86191,-1.0343 1.29287,-2.98799 1.29288,-5.86106 l 0,-39.9069 c -10e-6,-1.49394 -0.0862,-2.61443 -0.25858,-3.36149 -0.17239,-0.74694 -0.48843,-1.40774 -0.94811,-1.98241 -0.4597,-0.57456 -1.06304,-0.97679 -1.81003,-1.20669 -0.68955,-0.28725 -1.92496,-0.60329 -3.70626,-0.94811 -1.494,-0.22979 -2.24099,-0.97678 -2.24099,-2.24099 0,-1.37901 1.00557,-2.06855 3.01672,-2.06861 0.68953,6e-5 1.46526,0.0575 2.32718,0.17238 0.91938,0.0575 1.89622,0.14372 2.93053,0.25858 2.0686,0.22991 3.62005,0.40229 4.65437,0.51715 1.03429,0.0575 2.01113,0.0863 2.93053,0.0862 1.78128,6e-5 4.02227,-0.17232 6.72297,-0.51715 1.72382,-0.22978 3.18908,-0.40217 4.3958,-0.51715 1.26412,-0.11486 2.26969,-0.17232 3.01672,-0.17239 2.64318,7e-5 5.14275,0.45976 7.4987,1.37908 2.35587,0.86198 4.42448,2.06866 6.20582,3.62006 1.78126,1.49405 3.18906,3.27535 4.22341,5.3439 1.03426,2.0112 1.55141,4.13727 1.55146,6.37821 -5e-5,4.48203 -1.69516,8.07336 -5.08533,10.774 -0.63212,0.51719 -1.29292,0.97688 -1.98242,1.37908 -0.63211,0.3448 -1.37911,0.68956 -2.24099,1.0343 -0.86196,0.3448 -1.86753,0.68957 -3.01672,1.0343 -1.14926,0.28734 -2.4996,0.60338 -4.05102,0.94812 m -16.11791,-14.91122 0,12.15307 c 1.32159,0.11496 2.38463,0.20115 3.18911,0.25858 0.80443,0.0575 1.66635,0.0862 2.58576,0.0862 3.10288,3e-5 5.60245,-0.22981 7.4987,-0.68954 1.95365,-0.45965 3.62003,-1.26411 4.99914,-2.41337 2.98795,-2.29842 4.48194,-5.34387 4.48198,-9.13635 -4e-5,-1.78126 -0.37354,-3.44764 -1.12049,-4.99914 -0.68958,-1.60887 -1.66642,-3.01667 -2.93053,-4.22341 -1.20673,-1.20663 -2.64326,-2.15474 -4.3096,-2.84434 -1.60895,-0.68947 -3.36152,-1.03424 -5.25771,-1.0343 -1.20672,6e-5 -2.47087,0.20117 -3.79245,0.60334 -1.26417,0.40229 -2.21229,0.91944 -2.84434,1.55146 -0.86194,0.80452 -1.49401,2.06866 -1.89622,3.79245 -0.40225,1.66643 -0.60337,3.96488 -0.60335,6.89536"
         id="path20343" />
    </g>
  </g>
</svg>
