<?xml version="1.0" encoding="UTF-8" standalone="no"?>
<!-- Created with Inkscape (http://www.inkscape.org/) -->

<svg
   xmlns:dc="http://purl.org/dc/elements/1.1/"
   xmlns:cc="http://creativecommons.org/ns#"
   xmlns:rdf="http://www.w3.org/1999/02/22-rdf-syntax-ns#"
   xmlns:svg="http://www.w3.org/2000/svg"
   xmlns="http://www.w3.org/2000/svg"
   xmlns:sodipodi="http://sodipodi.sourceforge.net/DTD/sodipodi-0.dtd"
   xmlns:inkscape="http://www.inkscape.org/namespaces/inkscape"
   width="222.68187"
   height="123.24644"
   id="svg20206"
   version="1.1"
   inkscape:version="0.48.2 r9819"
   sodipodi:docname="logo.svg">
  <defs
     id="defs20208" />
  <sodipodi:namedview
     id="base"
     pagecolor="#ffffff"
     bordercolor="#666666"
     borderopacity="1.0"
     inkscape:pageopacity="0.0"
     inkscape:pageshadow="2"
     inkscape:zoom="0.98994949"
     inkscape:cx="373.42397"
     inkscape:cy="-184.46099"
     inkscape:document-units="px"
     inkscape:current-layer="layer1"
     showgrid="false"
     fit-margin-top="0"
     fit-margin-left="0"
     fit-margin-right="0"
     fit-margin-bottom="0"
     inkscape:window-width="1280"
     inkscape:window-height="745"
     inkscape:window-x="0"
     inkscape:window-y="26"
     inkscape:window-maximized="1">
    <inkscape:grid
       type="xygrid"
       id="grid20283"
       empspacing="5"
       visible="true"
       enabled="true"
       snapvisiblegridlinesonly="true" />
  </sodipodi:namedview>
  <metadata
     id="metadata20211">
    <rdf:RDF>
      <cc:Work
         rdf:about="">
        <dc:format>image/svg+xml</dc:format>
        <dc:type
           rdf:resource="http://purl.org/dc/dcmitype/StillImage" />
        <dc:title></dc:title>
      </cc:Work>
    </rdf:RDF>
  </metadata>
  <g
     inkscape:label="Calque 1"
     inkscape:groupmode="layer"
     id="layer1"
     transform="translate(-196.47363,-319.49405)">
    <rect
       style="fill:#000000;fill-opacity:1;fill-rule:evenodd;stroke:none"
       id="rect20285"
       width="28.427471"
       height="4.7379122"
       x="229.63904"
       y="319.49405"
       inkscape:export-filename="/home/julien/Public/Roumpi/logo.png"
       inkscape:export-xdpi="958.84613"
       inkscape:export-ydpi="958.84613" />
    <rect
       style="fill:#000000;fill-opacity:1;fill-rule:evenodd;stroke:none"
       id="rect20287"
       width="56.854942"
       height="18.951649"
       x="215.42529"
       y="324.23196"
       inkscape:export-filename="/home/julien/Public/Roumpi/logo.png"
       inkscape:export-xdpi="958.84613"
       inkscape:export-ydpi="958.84613" />
    <rect
       style="fill:#000000;fill-opacity:1;fill-rule:evenodd;stroke:none"
       id="rect20289"
       width="14.213736"
       height="18.951649"
       x="277.01813"
       y="328.96985"
       inkscape:export-filename="/home/julien/Public/Roumpi/logo.png"
       inkscape:export-xdpi="958.84613"
       inkscape:export-ydpi="958.84613" />
    <rect
       style="fill:#000000;fill-opacity:1;fill-rule:evenodd;stroke:none"
       id="rect20291"
       width="14.213736"
       height="18.951649"
       x="196.47363"
       y="328.96985"
       inkscape:export-filename="/home/julien/Public/Roumpi/logo.png"
       inkscape:export-xdpi="958.84613"
       inkscape:export-ydpi="958.84613" />
    <rect
       style="fill:#000000;fill-opacity:1;fill-rule:evenodd;stroke:none"
       id="rect20293"
       width="94.75824"
       height="94.75824"
       x="196.47363"
       y="347.92151"
       inkscape:export-filename="/home/julien/Public/Roumpi/logo.png"
       inkscape:export-xdpi="958.84613"
       inkscape:export-ydpi="958.84613" />
    <path
       style="fill:#ffffff;stroke:#ffffff;stroke-width:4.73791218px;stroke-linecap:butt;stroke-linejoin:miter;stroke-opacity:1"
       d="m 220.1632,361.20458 52.11703,0 4.73791,0"
       id="path20295"
       inkscape:connector-curvature="0"
       sodipodi:nodetypes="ccc"
       inkscape:export-filename="/home/julien/Public/Roumpi/logo.png"
       inkscape:export-xdpi="958.84613"
       inkscape:export-ydpi="958.84613" />
    <path
       style="fill:#ffffff;stroke:#ffffff;stroke-width:4.73791218px;stroke-linecap:butt;stroke-linejoin:miter;stroke-opacity:1"
       d="m 210.68737,370.6804 66.33077,0"
       id="path20297"
       inkscape:connector-curvature="0"
       sodipodi:nodetypes="cc"
       inkscape:export-filename="/home/julien/Public/Roumpi/logo.png"
       inkscape:export-xdpi="958.84613"
       inkscape:export-ydpi="958.84613" />
    <path
       style="fill:#ffffff;stroke:#ffffff;stroke-width:4.73791218px;stroke-linecap:butt;stroke-linejoin:miter;stroke-opacity:1"
       d="m 210.68737,380.15623 66.33077,0"
       id="path20299"
       inkscape:connector-curvature="0"
       sodipodi:nodetypes="cc"
       inkscape:export-filename="/home/julien/Public/Roumpi/logo.png"
       inkscape:export-xdpi="958.84613"
       inkscape:export-ydpi="958.84613" />
    <path
       style="fill:none;stroke:#ffffff;stroke-width:4.73791218px;stroke-linecap:butt;stroke-linejoin:miter;stroke-opacity:1"
       d="m 210.68737,389.63205 47.37912,0"
       id="path20301"
       inkscape:connector-curvature="0"
       sodipodi:nodetypes="cc"
       inkscape:export-filename="/home/julien/Public/Roumpi/logo.png"
       inkscape:export-xdpi="958.84613"
       inkscape:export-ydpi="958.84613" />
    <path
       style="fill:none;stroke:#ffffff;stroke-width:4.73791218px;stroke-linecap:butt;stroke-linejoin:miter;stroke-opacity:1"
       d="m 220.1632,403.84579 56.85494,0"
       id="path20303"
       inkscape:connector-curvature="0"
       sodipodi:nodetypes="cc"
       inkscape:export-filename="/home/julien/Public/Roumpi/logo.png"
       inkscape:export-xdpi="958.84613"
       inkscape:export-ydpi="958.84613" />
    <path
       style="fill:none;stroke:#ffffff;stroke-width:4.73791218px;stroke-linecap:butt;stroke-linejoin:miter;stroke-opacity:1"
       d="m 210.68737,413.32161 66.33077,0"
       id="path20305"
       inkscape:connector-curvature="0"
       sodipodi:nodetypes="cc"
       inkscape:export-filename="/home/julien/Public/Roumpi/logo.png"
       inkscape:export-xdpi="958.84613"
       inkscape:export-ydpi="958.84613" />
    <path
       style="fill:none;stroke:#ffffff;stroke-width:4.73791218px;stroke-linecap:butt;stroke-linejoin:miter;stroke-opacity:1"
       d="m 210.68737,422.79743 66.33077,0"
       id="path20307"
       inkscape:connector-curvature="0"
       sodipodi:nodetypes="cc"
       inkscape:export-filename="/home/julien/Public/Roumpi/logo.png"
       inkscape:export-xdpi="958.84613"
       inkscape:export-ydpi="958.84613" />
    <path
       style="fill:none;stroke:#ffffff;stroke-width:4.73791218px;stroke-linecap:butt;stroke-linejoin:miter;stroke-opacity:1"
       d="m 210.68737,432.27326 14.21374,0"
       id="path20309"
       inkscape:connector-curvature="0"
       inkscape:export-filename="/home/julien/Public/Roumpi/logo.png"
       inkscape:export-xdpi="958.84613"
       inkscape:export-ydpi="958.84613" />
    <path
       style="fill:#a3b9c0;fill-opacity:1;fill-rule:evenodd;stroke:none"
       d="m 357.56265,319.55478 0,4.73791 -14.21374,0 0,18.95165 56.85494,0 0,-18.95165 -14.21373,0 0,-4.73791 -28.42747,0 z m -33.16539,9.47582 0,18.95165 0,94.75824 94.75824,0 0,-94.75824 0,-18.95165 -14.21373,0 0,18.95165 -66.33077,0 0,-18.95165 -14.21374,0 z"
       id="rect20311"
       inkscape:connector-curvature="0"
       inkscape:export-filename="/home/julien/.gvfs/SFTP sur ssh.tuxfamily.org en tant que postpro/home/julienslw/julienbarrier.fr-web/htdocs/roumpi.png"
       inkscape:export-xdpi="36.091846"
       inkscape:export-ydpi="36.091846" />
    <g
       transform="scale(0.91336721,1.0948499)"
       style="font-size:86.19200134px;font-style:normal;font-variant:normal;font-weight:bold;font-stretch:normal;text-align:start;line-height:125%;letter-spacing:0px;word-spacing:0px;text-anchor:start;fill:#ffffff;fill-opacity:1;stroke:none;font-family:WorcesterSerial;-inkscape-font-specification:WorcesterSerial Bold"
       id="text20337"
       inkscape:export-filename="/home/julien/Public/Roumpi/install/assets/img/logo.png"
       inkscape:export-xdpi="22.648731"
       inkscape:export-ydpi="22.648731">
      <path
         d="m 415.75197,360.49007 c 0.6895,0.51718 1.26411,0.97687 1.72384,1.37907 0.51711,0.34479 0.9768,0.71829 1.37907,1.12049 0.40219,0.40226 0.77569,0.83322 1.1205,1.29288 0.34472,0.45972 0.71822,1.03433 1.12049,1.72384 l 4.74056,7.5849 c 1.03426,1.66639 2.06856,3.24658 3.10291,4.74056 1.03426,1.49401 2.0111,2.81562 2.93053,3.96483 0.91933,1.14924 1.72379,2.09735 2.41338,2.84434 0.68948,0.747 1.26409,1.20669 1.72384,1.37907 l 3.36149,1.46526 c 0.34471,0.11493 0.63201,0.37351 0.86192,0.77573 0.28724,0.40223 0.4309,0.83319 0.43096,1.29288 -6e-5,0.63208 -0.28737,1.06304 -0.86192,1.29288 -0.57468,0.28731 -1.60898,0.43096 -3.10292,0.43096 -1.89627,0 -3.50519,-0.11492 -4.82675,-0.34477 -1.32166,-0.17238 -2.49961,-0.51715 -3.53387,-1.0343 -1.03435,-0.57461 -1.98246,-1.32161 -2.84434,-2.24099 -0.8045,-0.97684 -1.63769,-2.21226 -2.49956,-3.70626 l -9.05016,-15.34217 c -0.57465,-0.97682 -1.37911,-2.03986 -2.41338,-3.18911 -0.97687,-1.1492 -1.92498,-2.09731 -2.84434,-2.84433 -1.49402,-1.26412 -3.41897,-1.8962 -5.77486,-1.89623 -0.86194,3e-5 -1.95371,0.11495 -3.2753,0.34477 l 0,18.96224 c -2e-5,0.86193 0.0287,1.63766 0.0862,2.32718 0.0574,0.63209 0.14363,1.17797 0.25857,1.63765 0.28729,0.80447 0.77571,1.55146 1.46527,2.24099 0.74697,0.68954 1.5227,1.1205 2.32718,1.29288 l 2.84434,0.60335 c 1.20666,0.28731 1.81,0.86192 1.81003,1.72384 -3e-5,1.32161 -1.06306,1.98241 -3.18911,1.98241 -0.57463,0 -1.17798,-0.0287 -1.81003,-0.0862 -0.57463,-0.0575 -1.20671,-0.17238 -1.89622,-0.34477 -2.24101,-0.34476 -4.1085,-0.51715 -5.60248,-0.51715 -0.34479,0 -0.94813,0.0287 -1.81003,0.0862 -0.80448,0.11493 -1.86751,0.22985 -3.18911,0.34477 -0.80447,0.11492 -1.58019,0.20112 -2.32718,0.25858 -0.74701,0.0575 -1.55146,0.0862 -2.41338,0.0862 l -0.17238,0 c -1.95369,0 -2.93053,-0.60334 -2.93053,-1.81003 0,-1.0343 0.6608,-1.66638 1.98242,-1.89623 1.72383,-0.34476 2.90179,-0.60334 3.53387,-0.77572 0.68953,-0.22985 1.26414,-0.66081 1.72384,-1.29288 0.86191,-1.0343 1.29287,-2.98799 1.29288,-5.86106 l 0,-39.9069 c -10e-6,-1.49394 -0.0862,-2.61443 -0.25858,-3.36149 -0.17239,-0.74694 -0.48843,-1.40774 -0.94811,-1.98241 -0.4597,-0.57456 -1.06304,-0.97679 -1.81003,-1.20669 -0.68955,-0.28725 -1.92496,-0.60329 -3.70626,-0.94811 -1.494,-0.22979 -2.24099,-0.97678 -2.24099,-2.24099 0,-1.37901 1.00557,-2.06855 3.01672,-2.06861 0.68953,6e-5 1.46526,0.0575 2.32718,0.17238 0.91938,0.0575 1.89622,0.14372 2.93053,0.25858 2.0686,0.22991 3.62005,0.40229 4.65437,0.51715 1.03429,0.0575 2.01113,0.0863 2.93053,0.0862 1.78128,6e-5 4.02227,-0.17232 6.72297,-0.51715 1.72382,-0.22978 3.18908,-0.40217 4.3958,-0.51715 1.26412,-0.11486 2.26969,-0.17232 3.01672,-0.17239 2.64318,7e-5 5.14275,0.45976 7.4987,1.37908 2.35587,0.86198 4.42448,2.06866 6.20582,3.62006 1.78126,1.49405 3.18906,3.27535 4.22341,5.3439 1.03426,2.0112 1.55141,4.13727 1.55146,6.37821 -5e-5,4.48203 -1.69516,8.07336 -5.08533,10.774 -0.63212,0.51719 -1.29292,0.97688 -1.98242,1.37908 -0.63211,0.3448 -1.37911,0.68956 -2.24099,1.0343 -0.86196,0.3448 -1.86753,0.68957 -3.01672,1.0343 -1.14926,0.28734 -2.4996,0.60338 -4.05102,0.94812 m -16.11791,-14.91122 0,12.15307 c 1.32159,0.11496 2.38463,0.20115 3.18911,0.25858 0.80443,0.0575 1.66635,0.0862 2.58576,0.0862 3.10288,3e-5 5.60245,-0.22981 7.4987,-0.68954 1.95365,-0.45965 3.62003,-1.26411 4.99914,-2.41337 2.98795,-2.29842 4.48194,-5.34387 4.48198,-9.13635 -4e-5,-1.78126 -0.37354,-3.44764 -1.12049,-4.99914 -0.68958,-1.60887 -1.66642,-3.01667 -2.93053,-4.22341 -1.20673,-1.20663 -2.64326,-2.15474 -4.3096,-2.84434 -1.60895,-0.68947 -3.36152,-1.03424 -5.25771,-1.0343 -1.20672,6e-5 -2.47087,0.20117 -3.79245,0.60334 -1.26417,0.40229 -2.21229,0.91944 -2.84434,1.55146 -0.86194,0.80452 -1.49401,2.06866 -1.89622,3.79245 -0.40225,1.66643 -0.60337,3.96488 -0.60335,6.89536"
         id="path20343"
         inkscape:connector-curvature="0" />
    </g>
    <path
       style="fill:#000000;fill-opacity:1;fill-rule:evenodd;stroke:none"
       d="M 161.09375 135.78125 L 161.09375 140.5 L 146.875 140.5 L 146.875 159.46875 L 203.71875 159.46875 L 203.71875 140.5 L 189.53125 140.5 L 189.53125 135.78125 L 161.09375 135.78125 z M 127.9375 145.25 L 127.9375 164.1875 L 127.9375 258.96875 L 222.6875 258.96875 L 222.6875 164.1875 L 222.6875 145.25 L 208.46875 145.25 L 208.46875 164.1875 L 142.125 164.1875 L 142.125 145.25 L 127.9375 145.25 z M 180.4375 176 C 182.85169 176.00008 185.1294 176.49348 187.28125 177.5 C 189.43302 178.44374 191.31048 179.7702 192.9375 181.46875 C 194.56444 183.10451 195.86776 185.04775 196.8125 187.3125 C 197.75716 189.51446 198.2187 191.82776 198.21875 194.28125 C 198.2187 199.1884 196.65897 203.13695 193.5625 206.09375 C 192.98514 206.66 192.37977 207.1534 191.75 207.59375 C 191.17265 207.97125 190.50596 208.34131 189.71875 208.71875 C 188.93146 209.09625 188.01838 209.49757 186.96875 209.875 C 185.91905 210.18959 184.66702 210.52881 183.25 210.90625 C 183.87977 211.47248 184.42385 211.9659 184.84375 212.40625 C 185.31606 212.78374 185.72633 213.18465 186.09375 213.625 C 186.4611 214.06541 186.81006 214.55924 187.125 215.0625 C 187.43986 215.56582 187.78883 216.18259 188.15625 216.9375 L 192.46875 225.25 C 193.41341 227.07445 194.36776 228.80182 195.3125 230.4375 C 196.25716 232.07322 197.12897 233.52304 197.96875 234.78125 C 198.80844 236.0395 199.55765 237.08841 200.1875 237.90625 C 200.81725 238.7241 201.33008 239.21752 201.75 239.40625 L 204.84375 241 C 205.1586 241.12583 205.41501 241.40338 205.625 241.84375 C 205.88736 242.28413 205.99995 242.77796 206 243.28125 C 205.99995 243.97328 205.74353 244.43586 205.21875 244.6875 C 204.69386 245.00206 203.77077 245.15625 202.40625 245.15625 C 200.67426 245.15625 199.17582 245.0329 197.96875 244.78125 C 196.76159 244.59252 195.69466 244.22245 194.75 243.65625 C 193.80526 243.02714 192.94346 242.19408 192.15625 241.1875 C 191.42145 240.11801 190.6622 238.76071 189.875 237.125 L 181.59375 220.34375 C 181.06888 219.27428 180.35092 218.10201 179.40625 216.84375 C 178.51401 215.58555 177.65221 214.53662 176.8125 213.71875 C 175.44791 212.33473 173.68304 211.65628 171.53125 211.65625 C 170.74398 211.65628 169.73835 211.77963 168.53125 212.03125 L 168.53125 232.78125 C 168.53123 233.72493 168.57248 234.58883 168.625 235.34375 C 168.67743 236.03579 168.73877 236.62172 168.84375 237.125 C 169.10615 238.00577 169.55768 238.83882 170.1875 239.59375 C 170.86976 240.34869 171.57771 240.81127 172.3125 241 L 174.90625 241.65625 C 176.00837 241.97081 176.56247 242.61883 176.5625 243.5625 C 176.56247 245.00946 175.59811 245.71875 173.65625 245.71875 C 173.1314 245.71875 172.57729 245.68795 172 245.625 C 171.47515 245.56205 170.91103 245.43874 170.28125 245.25 C 168.23438 244.87254 166.5208 244.6875 165.15625 244.6875 C 164.84133 244.6875 164.28723 244.7183 163.5 244.78125 C 162.76521 244.90708 161.80086 245.03043 160.59375 245.15625 C 159.85897 245.28207 159.15103 245.37459 158.46875 245.4375 C 157.78646 245.50045 157.03725 245.53125 156.25 245.53125 L 156.09375 245.53125 C 154.30931 245.53125 153.4375 244.88364 153.4375 243.5625 C 153.4375 242.4301 154.04288 241.7204 155.25 241.46875 C 156.82449 241.09129 157.89143 240.81373 158.46875 240.625 C 159.09854 240.37335 159.61138 239.91077 160.03125 239.21875 C 160.81849 238.08635 161.21874 235.92683 161.21875 232.78125 L 161.21875 189.09375 C 161.21874 187.45811 161.1262 186.25542 160.96875 185.4375 C 160.81129 184.61971 160.54486 183.87918 160.125 183.25 C 159.70513 182.62094 159.15103 182.18921 158.46875 181.9375 C 157.83894 181.623 156.68948 181.28378 155.0625 180.90625 C 153.69793 180.65466 153.03125 179.82162 153.03125 178.4375 C 153.03125 176.92769 153.94433 176.18757 155.78125 176.1875 C 156.41104 176.18757 157.119 176.24922 157.90625 176.375 C 158.74598 176.43795 159.64905 176.5305 160.59375 176.65625 C 162.48314 176.90797 163.89904 177.093 164.84375 177.21875 C 165.78844 177.2817 166.66025 177.31261 167.5 177.3125 C 169.12696 177.31257 171.18952 177.12754 173.65625 176.75 C 175.23073 176.49843 176.55407 176.31339 177.65625 176.1875 C 178.81086 176.06175 179.75519 176.00008 180.4375 176 z M 176.875 180.53125 C 175.77282 180.53132 174.61334 180.74718 173.40625 181.1875 C 172.2516 181.62795 171.38979 182.18303 170.8125 182.875 C 170.02523 183.75583 169.46112 185.14396 169.09375 187.03125 C 168.72635 188.85574 168.53123 191.35406 168.53125 194.5625 L 168.53125 207.875 C 169.73835 208.00086 170.70271 208.09337 171.4375 208.15625 C 172.17224 208.2192 172.97274 208.25 173.8125 208.25 C 176.64657 208.25003 178.92428 208.00334 180.65625 207.5 C 182.44065 206.99675 183.95912 206.13327 185.21875 204.875 C 187.94785 202.35858 189.31246 199.0272 189.3125 194.875 C 189.31246 192.92479 188.99474 191.07366 188.3125 189.375 C 187.68266 187.61353 186.7796 186.0712 185.625 184.75 C 184.52281 183.42892 183.20948 182.41126 181.6875 181.65625 C 180.21794 180.90138 178.60692 180.53132 176.875 180.53125 z "
       transform="translate(196.47363,319.49405)"
       id="path20366"
       inkscape:export-filename="/home/julien/Public/Roumpi/themes/dark/img/attribution.png"
       inkscape:export-xdpi="22"
       inkscape:export-ydpi="22" />
    <g
       inkscape:export-ydpi="22.648731"
       inkscape:export-xdpi="22.648731"
       inkscape:export-filename="/home/julien/Public/Roumpi/install/assets/img/logo.png"
       id="g20368"
       style="font-size:86.19200134px;font-style:normal;font-variant:normal;font-weight:bold;font-stretch:normal;text-align:start;line-height:125%;letter-spacing:0px;word-spacing:0px;text-anchor:start;fill:#ffffff;fill-opacity:1;stroke:none;font-family:WorcesterSerial;-inkscape-font-specification:WorcesterSerial Bold"
       transform="matrix(0.91336721,0,0,1.0948499,0,135.71429)" />
    <path
       inkscape:export-ydpi="22"
       inkscape:export-xdpi="22"
       inkscape:export-filename="/home/julien/Public/Roumpi/themes/dark/img/icon_2.png"
       id="path20373"
       d="m 357.56738,589.12051 0,4.71875 -14.21875,0 0,18.96875 56.84375,0 0,-18.96875 -14.1875,0 0,-4.71875 -28.4375,0 z m -33.15625,9.46875 0,18.9375 0,94.78125 94.75,0 0,-94.78125 0,-18.9375 -14.21875,0 0,18.9375 -66.34375,0 0,-18.9375 -14.1875,0 z m 52.5,30.75 c 2.41419,8e-5 4.6919,0.49348 6.84375,1.5 2.15177,0.94374 4.02923,2.2702 5.65625,3.96875 1.62694,1.63576 2.93026,3.579 3.875,5.84375 0.94466,2.20196 1.4062,4.51526 1.40625,6.96875 -5e-5,4.90715 -1.55978,8.8557 -4.65625,11.8125 -0.57736,0.56625 -1.18273,1.05965 -1.8125,1.5 -0.57735,0.3775 -1.24404,0.74756 -2.03125,1.125 -0.78729,0.3775 -1.70037,0.77882 -2.75,1.15625 -1.0497,0.31459 -2.30173,0.65381 -3.71875,1.03125 0.62977,0.56623 1.17385,1.05965 1.59375,1.5 0.47231,0.37749 0.88258,0.7784 1.25,1.21875 0.36735,0.44041 0.71631,0.93424 1.03125,1.4375 0.31486,0.50332 0.66383,1.12009 1.03125,1.875 l 4.3125,8.3125 c 0.94466,1.82445 1.89901,3.55182 2.84375,5.1875 0.94466,1.63572 1.81647,3.08554 2.65625,4.34375 0.83969,1.25825 1.5889,2.30716 2.21875,3.125 0.62975,0.81785 1.14258,1.31127 1.5625,1.5 l 3.09375,1.59375 c 0.31485,0.12583 0.57126,0.40338 0.78125,0.84375 0.26236,0.44038 0.37495,0.93421 0.375,1.4375 -5e-5,0.69203 -0.25647,1.15461 -0.78125,1.40625 -0.52489,0.31456 -1.44798,0.46875 -2.8125,0.46875 -1.73199,0 -3.23043,-0.12335 -4.4375,-0.375 -1.20716,-0.18873 -2.27409,-0.5588 -3.21875,-1.125 -0.94474,-0.62911 -1.80654,-1.46217 -2.59375,-2.46875 -0.7348,-1.06949 -1.49405,-2.42679 -2.28125,-4.0625 l -8.28125,-16.78125 c -0.52487,-1.06947 -1.24283,-2.24174 -2.1875,-3.5 -0.89224,-1.2582 -1.75404,-2.30713 -2.59375,-3.125 -1.36459,-1.38402 -3.12946,-2.06247 -5.28125,-2.0625 -0.78727,3e-5 -1.7929,0.12338 -3,0.375 l 0,20.75 c -2e-5,0.94368 0.0412,1.80758 0.0937,2.5625 0.0524,0.69204 0.11377,1.27797 0.21875,1.78125 0.2624,0.88077 0.71393,1.71382 1.34375,2.46875 0.68226,0.75494 1.39021,1.21752 2.125,1.40625 l 2.59375,0.65625 c 1.10212,0.31456 1.65622,0.96258 1.65625,1.90625 -3e-5,1.44696 -0.96439,2.15625 -2.90625,2.15625 -0.52485,0 -1.07896,-0.0308 -1.65625,-0.0937 -0.52485,-0.063 -1.08897,-0.18626 -1.71875,-0.375 -2.04687,-0.37746 -3.76045,-0.5625 -5.125,-0.5625 -0.31492,0 -0.86902,0.0308 -1.65625,0.0937 -0.73479,0.12583 -1.69914,0.24918 -2.90625,0.375 -0.73478,0.12582 -1.44272,0.21834 -2.125,0.28125 -0.68229,0.063 -1.4315,0.0937 -2.21875,0.0937 l -0.15625,0 c -1.78444,0 -2.65625,-0.64761 -2.65625,-1.96875 0,-1.1324 0.60538,-1.8421 1.8125,-2.09375 1.57449,-0.37746 2.64143,-0.65502 3.21875,-0.84375 0.62979,-0.25165 1.14263,-0.71423 1.5625,-1.40625 0.78724,-1.1324 1.18749,-3.29192 1.1875,-6.4375 l 0,-43.6875 c -1e-5,-1.63564 -0.0926,-2.83833 -0.25,-3.65625 -0.15746,-0.81779 -0.42389,-1.55832 -0.84375,-2.1875 -0.41987,-0.62906 -0.97397,-1.06079 -1.65625,-1.3125 -0.62981,-0.3145 -1.77927,-0.65372 -3.40625,-1.03125 -1.36457,-0.25159 -2.03125,-1.08463 -2.03125,-2.46875 0,-1.50981 0.91308,-2.24993 2.75,-2.25 0.62979,7e-5 1.33775,0.0617 2.125,0.1875 0.83973,0.063 1.7428,0.1555 2.6875,0.28125 1.88939,0.25172 3.30529,0.43675 4.25,0.5625 0.94469,0.063 1.8165,0.0939 2.65625,0.0937 1.62696,7e-5 3.68952,-0.18496 6.15625,-0.5625 1.57448,-0.25157 2.89782,-0.43661 4,-0.5625 1.15461,-0.12575 2.09894,-0.18742 2.78125,-0.1875 z m -3.5625,4.53125 c -1.10218,7e-5 -2.26166,0.21593 -3.46875,0.65625 -1.15465,0.44045 -2.01646,0.99553 -2.59375,1.6875 -0.78727,0.88083 -1.35138,2.26896 -1.71875,4.15625 -0.3674,1.82449 -0.56252,4.32281 -0.5625,7.53125 l 0,13.3125 c 1.2071,0.12586 2.17146,0.21837 2.90625,0.28125 0.73474,0.063 1.53524,0.0937 2.375,0.0937 2.83407,3e-5 5.11178,-0.24666 6.84375,-0.75 1.7844,-0.50325 3.30287,-1.36673 4.5625,-2.625 2.7291,-2.51642 4.09371,-5.8478 4.09375,-10 -4e-5,-1.95021 -0.31776,-3.80134 -1,-5.5 -0.62984,-1.76147 -1.5329,-3.3038 -2.6875,-4.625 -1.10219,-1.32108 -2.41552,-2.33874 -3.9375,-3.09375 -1.46956,-0.75487 -3.08058,-1.12493 -4.8125,-1.125 z"
       style="fill:#aaaaaa;fill-opacity:1;fill-rule:evenodd;stroke:none"
       inkscape:connector-curvature="0" />
    <path
       inkscape:connector-curvature="0"
       style="fill:#929292;fill-opacity:1;fill-rule:evenodd;stroke:none"
       d="m 357.56738,728.52156 0,4.71875 -14.21875,0 0,18.96875 56.84375,0 0,-18.96875 -14.1875,0 0,-4.71875 -28.4375,0 z m -33.15625,9.46875 0,18.9375 0,94.78125 94.75,0 0,-94.78125 0,-18.9375 -14.21875,0 0,18.9375 -66.34375,0 0,-18.9375 -14.1875,0 z m 52.5,30.75 c 2.41419,8e-5 4.6919,0.49348 6.84375,1.5 2.15177,0.94374 4.02923,2.2702 5.65625,3.96875 1.62694,1.63576 2.93026,3.579 3.875,5.84375 0.94466,2.20196 1.4062,4.51526 1.40625,6.96875 -5e-5,4.90715 -1.55978,8.8557 -4.65625,11.8125 -0.57736,0.56625 -1.18273,1.05965 -1.8125,1.5 -0.57735,0.3775 -1.24404,0.74756 -2.03125,1.125 -0.78729,0.3775 -1.70037,0.77882 -2.75,1.15625 -1.0497,0.31459 -2.30173,0.65381 -3.71875,1.03125 0.62977,0.56623 1.17385,1.05965 1.59375,1.5 0.47231,0.37749 0.88258,0.7784 1.25,1.21875 0.36735,0.44041 0.71631,0.93424 1.03125,1.4375 0.31486,0.50332 0.66383,1.12009 1.03125,1.875 l 4.3125,8.3125 c 0.94466,1.82445 1.89901,3.55182 2.84375,5.1875 0.94466,1.63572 1.81647,3.08554 2.65625,4.34375 0.83969,1.25825 1.5889,2.30716 2.21875,3.125 0.62975,0.81785 1.14258,1.31127 1.5625,1.5 l 3.09375,1.59375 c 0.31485,0.12583 0.57126,0.40338 0.78125,0.84375 0.26236,0.44038 0.37495,0.93421 0.375,1.4375 -5e-5,0.69203 -0.25647,1.15461 -0.78125,1.40625 -0.52489,0.31456 -1.44798,0.46875 -2.8125,0.46875 -1.73199,0 -3.23043,-0.12335 -4.4375,-0.375 -1.20716,-0.18873 -2.27409,-0.5588 -3.21875,-1.125 -0.94474,-0.62911 -1.80654,-1.46217 -2.59375,-2.46875 -0.7348,-1.06949 -1.49405,-2.42679 -2.28125,-4.0625 l -8.28125,-16.78125 c -0.52487,-1.06947 -1.24283,-2.24174 -2.1875,-3.5 -0.89224,-1.2582 -1.75404,-2.30713 -2.59375,-3.125 -1.36459,-1.38402 -3.12946,-2.06247 -5.28125,-2.0625 -0.78727,3e-5 -1.7929,0.12338 -3,0.375 l 0,20.75 c -2e-5,0.94368 0.0412,1.80758 0.0937,2.5625 0.0524,0.69204 0.11377,1.27797 0.21875,1.78125 0.2624,0.88077 0.71393,1.71382 1.34375,2.46875 0.68226,0.75494 1.39021,1.21752 2.125,1.40625 l 2.59375,0.65625 c 1.10212,0.31456 1.65622,0.96258 1.65625,1.90625 -3e-5,1.44696 -0.96439,2.15625 -2.90625,2.15625 -0.52485,0 -1.07896,-0.0308 -1.65625,-0.0937 -0.52485,-0.063 -1.08897,-0.18626 -1.71875,-0.375 -2.04687,-0.37746 -3.76045,-0.5625 -5.125,-0.5625 -0.31492,0 -0.86902,0.0308 -1.65625,0.0937 -0.73479,0.12583 -1.69914,0.24918 -2.90625,0.375 -0.73478,0.12582 -1.44272,0.21834 -2.125,0.28125 -0.68229,0.063 -1.4315,0.0937 -2.21875,0.0937 l -0.15625,0 c -1.78444,0 -2.65625,-0.64761 -2.65625,-1.96875 0,-1.1324 0.60538,-1.8421 1.8125,-2.09375 1.57449,-0.37746 2.64143,-0.65502 3.21875,-0.84375 0.62979,-0.25165 1.14263,-0.71423 1.5625,-1.40625 0.78724,-1.1324 1.18749,-3.29192 1.1875,-6.4375 l 0,-43.6875 c -1e-5,-1.63564 -0.0926,-2.83833 -0.25,-3.65625 -0.15746,-0.81779 -0.42389,-1.55832 -0.84375,-2.1875 -0.41987,-0.62906 -0.97397,-1.06079 -1.65625,-1.3125 -0.62981,-0.3145 -1.77927,-0.65372 -3.40625,-1.03125 -1.36457,-0.25159 -2.03125,-1.08463 -2.03125,-2.46875 0,-1.50981 0.91308,-2.24993 2.75,-2.25 0.62979,7e-5 1.33775,0.0617 2.125,0.1875 0.83973,0.063 1.7428,0.1555 2.6875,0.28125 1.88939,0.25172 3.30529,0.43675 4.25,0.5625 0.94469,0.063 1.8165,0.0939 2.65625,0.0937 1.62696,7e-5 3.68952,-0.18496 6.15625,-0.5625 1.57448,-0.25157 2.89782,-0.43661 4,-0.5625 1.15461,-0.12575 2.09894,-0.18742 2.78125,-0.1875 z m -3.5625,4.53125 c -1.10218,7e-5 -2.26166,0.21593 -3.46875,0.65625 -1.15465,0.44045 -2.01646,0.99553 -2.59375,1.6875 -0.78727,0.88083 -1.35138,2.26896 -1.71875,4.15625 -0.3674,1.82449 -0.56252,4.32281 -0.5625,7.53125 l 0,13.3125 c 1.2071,0.12586 2.17146,0.21837 2.90625,0.28125 0.73474,0.063 1.53524,0.0937 2.375,0.0937 2.83407,3e-5 5.11178,-0.24666 6.84375,-0.75 1.7844,-0.50325 3.30287,-1.36673 4.5625,-2.625 2.7291,-2.51642 4.09371,-5.8478 4.09375,-10 -4e-5,-1.95021 -0.31776,-3.80134 -1,-5.5 -0.62984,-1.76147 -1.5329,-3.3038 -2.6875,-4.625 -1.10219,-1.32108 -2.41552,-2.33874 -3.9375,-3.09375 -1.46956,-0.75487 -3.08058,-1.12493 -4.8125,-1.125 z"
       id="path20375"
       inkscape:export-filename="/home/julien/Public/Roumpi/themes/default/img/attribution.png"
       inkscape:export-xdpi="22"
       inkscape:export-ydpi="22" />
  </g>
</svg>
