<?xml version="1.0" encoding="UTF-8" standalone="no"?>
<!-- Created with Inkscape (http://www.inkscape.org/) -->

<svg
   xmlns:dc="http://purl.org/dc/elements/1.1/"
   xmlns:cc="http://creativecommons.org/ns#"
   xmlns:rdf="http://www.w3.org/1999/02/22-rdf-syntax-ns#"
   xmlns:svg="http://www.w3.org/2000/svg"
   xmlns="http://www.w3.org/2000/svg"
   xmlns:xlink="http://www.w3.org/1999/xlink"
   xmlns:sodipodi="http://sodipodi.sourceforge.net/DTD/sodipodi-0.dtd"
   xmlns:inkscape="http://www.inkscape.org/namespaces/inkscape"
   width="210mm"
   height="297mm"
   id="svg2"
   version="1.1"
   inkscape:version="0.48.2 r9819"
   sodipodi:docname="close-search.svg">
  <defs
     id="defs4" />
  <sodipodi:namedview
     id="base"
     pagecolor="#ffffff"
     bordercolor="#666666"
     borderopacity="1.0"
     inkscape:pageopacity="0.0"
     inkscape:pageshadow="2"
     inkscape:zoom="2"
     inkscape:cx="646.30845"
     inkscape:cy="711.13871"
     inkscape:document-units="px"
     inkscape:current-layer="layer1"
     showgrid="false"
     showguides="true"
     inkscape:guide-bbox="true"
     inkscape:window-width="1280"
     inkscape:window-height="745"
     inkscape:window-x="0"
     inkscape:window-y="26"
     inkscape:window-maximized="1">
    <sodipodi:guide
       orientation="-0.70710678,0.70710678"
       position="431.875,638.75"
       id="guide3000" />
    <sodipodi:guide
       orientation="0.70710678,0.70710678"
       position="429.91072,645.89286"
       id="guide3002" />
    <sodipodi:guide
       orientation="0.70710678,0.70710678"
       position="420.35714,634.375"
       id="guide3004" />
    <sodipodi:guide
       orientation="0,1"
       position="416.25,655"
       id="guide3006" />
    <sodipodi:guide
       orientation="1,0"
       position="410.26786,651.25"
       id="guide3008" />
    <sodipodi:guide
       orientation="0,1"
       position="486.53906,641.35156"
       id="guide3014" />
    <sodipodi:guide
       orientation="1,0"
       position="485.91797,641.17969"
       id="guide3016" />
  </sodipodi:namedview>
  <metadata
     id="metadata7">
    <rdf:RDF>
      <cc:Work
         rdf:about="">
        <dc:format>image/svg+xml</dc:format>
        <dc:type
           rdf:resource="http://purl.org/dc/dcmitype/StillImage" />
        <dc:title></dc:title>
      </cc:Work>
    </rdf:RDF>
  </metadata>
  <g
     inkscape:label="Calque 1"
     inkscape:groupmode="layer"
     id="layer1">
    <image
       y="397.50504"
       x="456.57144"
       id="image2993"
       xlink:href="file:///home/julien/Images/trucs/glyphicons/glyphicons_065_tag.png"
       height="24"
       width="24" />
    <path
       style="fill:#ffffff;fill-opacity:1;fill-rule:evenodd;stroke:#000000;stroke-width:0.5;stroke-opacity:1"
       d="m 414.58036,333.34375 0,9.21875 12.53125,12.5 9.1875,-9.1875 -12.5,-12.5 c -3.13134,-0.007 -6.45255,-0.0333 -9.21875,-0.0312 z m 3.90625,2.15625 c 1.08485,0 1.96875,0.8839 1.96875,1.96875 0,1.08485 -0.8839,1.96875 -1.96875,1.96875 -1.08485,0 -1.96875,-0.8839 -1.96875,-1.96875 0,-1.08485 0.8839,-1.96875 1.96875,-1.96875 z"
       id="path3021"
       inkscape:export-filename="/home/julien/Public/Roumpi/themes/plastique/img/search.png"
       inkscape:export-xdpi="60.503872"
       inkscape:export-ydpi="60.503872"
       inkscape:connector-curvature="0"
       sodipodi:nodetypes="ccccccsssss" />
    <path
       style="fill:#000000;fill-opacity:1;fill-rule:evenodd;stroke:none"
       d="m 485.90625,411 0,9.21875 12.53125,12.5 9.1875,-9.1875 -12.5,-12.52063 c -3.13134,-0.007 -6.45255,-0.0127 -9.21875,-0.0106 z"
       id="rect3012"
       inkscape:connector-curvature="0"
       sodipodi:nodetypes="cccccc" />
    <path
       style="fill:#ffffff;fill-opacity:1;fill-rule:evenodd;stroke:#000000;stroke-width:0.5;stroke-opacity:1"
       d="m 459.3125,333.34375 0,9.21875 12.53125,12.5 9.1875,-9.1875 -12.5,-12.5 c -3.13134,-0.007 -6.45255,-0.0333 -9.21875,-0.0312 z m 3.90625,2.15625 c 1.08485,0 1.96875,0.8839 1.96875,1.96875 0,1.08485 -0.8839,1.96875 -1.96875,1.96875 -1.08485,0 -1.96875,-0.8839 -1.96875,-1.96875 0,-1.08485 0.8839,-1.96875 1.96875,-1.96875 z m 8.3125,5.375 1.21875,0 0,4.28125 3.90625,0 0,1.09375 -3.90625,0 0,4.5625 -1.21875,0 0,-4.5625 -3.96875,0 0,-1.09375 3.96875,0 z"
       id="path3024"
       inkscape:export-filename="/home/julien/Public/Roumpi/themes/plastique/img/close.png"
       inkscape:export-xdpi="60.503872"
       inkscape:export-ydpi="60.503872"
       inkscape:connector-curvature="0"
       sodipodi:nodetypes="ccccccsssssccccccccccccc" />
    <g
       style="font-size:20.32832909px;font-style:normal;font-variant:normal;font-weight:normal;font-stretch:normal;text-align:start;line-height:125%;letter-spacing:0px;word-spacing:0px;text-anchor:start;fill:#ffffff;fill-opacity:1;stroke:none;font-family:calluna;-inkscape-font-specification:calluna"
       id="text3026" />
    <path
       style="fill:none;stroke:#ffffff;stroke-width:1px;stroke-linecap:butt;stroke-linejoin:miter;stroke-opacity:1"
       d="m 412.01786,266.11218 c 0,0 -9.5,12 -1.75,33 7.75,21 4.5,33.5 4.5,33.5"
       id="path2994"
       inkscape:connector-curvature="0"
       sodipodi:nodetypes="csc"
       inkscape:export-filename="/home/julien/Public/Roumpi/themes/plastique/img/search.png"
       inkscape:export-xdpi="60"
       inkscape:export-ydpi="60" />
    <path
       inkscape:export-ydpi="60"
       inkscape:export-xdpi="60"
       inkscape:export-filename="/home/julien/Public/Roumpi/themes/plastique/img/close.png"
       sodipodi:nodetypes="csc"
       inkscape:connector-curvature="0"
       id="path2996"
       d="m 457.625,265.11218 c 0,0 -9.8125,17.8125 -2.0625,38.8125 7.75,21 3.6875,28.9375 3.6875,28.9375"
       style="fill:none;stroke:#ffffff;stroke-width:1px;stroke-linecap:butt;stroke-linejoin:miter;stroke-opacity:1" />
  </g>
</svg>
